HIERARCHY
ROOT Hips
{
 OFFSET 0.000000 0.000000 0.000000
 CHANNELS 6 Xposition Yposition Zposition Yrotation Xrotation Zrotation
 JOINT Chest
 {
  OFFSET 0.000000 9.585900 0.002600
  CHANNELS 3 Yrotation Xrotation Zrotation
  JOINT Chest2
  {
   OFFSET 0.000000 9.601200 -0.005300
   CHANNELS 3 Yrotation Xrotation Zrotation
   JOINT Chest3
   {
    OFFSET 0.000000 9.561800 0.000000
    CHANNELS 3 Yrotation Xrotation Zrotation
    JOINT Chest4
    {
     OFFSET 0.000000 9.552100 0.000000
     CHANNELS 3 Yrotation Xrotation Zrotation
     JOINT Neck
     {
      OFFSET 0.000000 14.453000 0.000000
      CHANNELS 3 Yrotation Xrotation Zrotation
      JOINT Head
      {
       OFFSET 0.000000 8.936500 -0.011300
       CHANNELS 3 Yrotation Xrotation Zrotation
       End Site
       {
        OFFSET 0.000000 17.073600 -0.006000
       }
      }
     }
     JOINT RightCollar
     {
      OFFSET -2.921100 9.558500 0.000000
      CHANNELS 3 Yrotation Xrotation Zrotation
      JOINT RightShoulder
      {
       OFFSET -13.519700 0.000000 0.000000
       CHANNELS 3 Yrotation Xrotation Zrotation
       JOINT RightElbow
       {
        OFFSET 0.000000 -29.696600 0.000000
        CHANNELS 3 Yrotation Xrotation Zrotation
        JOINT RightWrist
        {
         OFFSET 0.000000 -24.004700 0.000000
         CHANNELS 3 Yrotation Xrotation Zrotation
         End Site
         {
          OFFSET 0.000000 -17.728500 0.000000
         }
        }
       }
      }
     }
     JOINT LeftCollar
     {
      OFFSET 2.921100 9.558500 0.000000
      CHANNELS 3 Yrotation Xrotation Zrotation
      JOINT LeftShoulder
      {
       OFFSET 13.519700 0.000000 0.000000
       CHANNELS 3 Yrotation Xrotation Zrotation
       JOINT LeftElbow
       {
        OFFSET 0.000000 -29.696600 0.000000
        CHANNELS 3 Yrotation Xrotation Zrotation
        JOINT LeftWrist
        {
         OFFSET 0.000000 -24.004700 0.000000
         CHANNELS 3 Yrotation Xrotation Zrotation
         End Site
         {
          OFFSET 0.000000 -17.728500 0.000000
         }
        }
       }
      }
     }
    }
   }
  }
 }
 JOINT RightHip
 {
  OFFSET -7.771700 -0.012900 -0.001300
  CHANNELS 3 Yrotation Xrotation Zrotation
  JOINT RightKnee
  {
   OFFSET 0.000000 -40.869800 0.001200
   CHANNELS 3 Yrotation Xrotation Zrotation
   JOINT RightAnkle
   {
    OFFSET 0.000000 -39.717900 0.002100
    CHANNELS 3 Yrotation Xrotation Zrotation
    JOINT RightToe
    {
     OFFSET 0.000000 -4.965400 11.033500
     CHANNELS 3 Yrotation Xrotation Zrotation
     End Site
     {
      OFFSET 0.000000 -1.423100 5.872300
     }
    }
   }
  }
 }
 JOINT LeftHip
 {
  OFFSET 7.771700 -0.012900 -0.001300
  CHANNELS 3 Yrotation Xrotation Zrotation
  JOINT LeftKnee
  {
   OFFSET 0.000000 -40.869800 0.001200
   CHANNELS 3 Yrotation Xrotation Zrotation
   JOINT LeftAnkle
   {
    OFFSET 0.000000 -39.717900 0.002100
    CHANNELS 3 Yrotation Xrotation Zrotation
    JOINT LeftToe
    {
     OFFSET 0.000000 -4.965400 11.033500
     CHANNELS 3 Yrotation Xrotation Zrotation
     End Site
     {
      OFFSET 0.000000 -1.423100 5.872300
     }
    }
   }
  }
 }
}
MOTION
Frames: 6
Frame Time: 0.008333
-247.477655 60.852903 -79.036702 157.584057 -14.469498 0.910190 4.240674 12.790901 0.868805 0.344263 1.067745 0.026212 0.578207 1.718217 0.127610 3.882252 11.531622 0.899212 -4.933593 16.837824 -1.008546 -5.023659 -7.922359 0.056494 5.603146 -3.353030 -8.192740 6.232095 -19.974833 -15.570250 -21.874089 -48.447710 34.331229 -2.362282 -0.973742 -10.716636 -3.898832 -6.471243 -0.028524 8.648456 -8.883179 7.515486 18.061740 -38.717436 -44.941690 -1.738120 -4.328254 4.986412 1.831433 -54.136213 5.243986 -25.245166 71.058947 -21.760188 -1.083498 -6.541275 -1.732104 -0.140997 -0.152094 -0.089110 12.168573 -54.597863 -0.999548 29.076751 66.794351 30.093675 -20.585472 -16.562415 0.852330 0.186308 0.114995 0.108123
-247.485250 60.852503 -79.001313 157.657552 -14.521991 0.933122 4.159889 12.785760 0.877870 0.335884 1.028083 0.059998 0.577114 1.791997 0.069599 3.835574 11.501777 0.939622 -5.030735 16.812416 -0.792375 -5.180169 -7.943928 0.309000 6.199547 -3.257532 -8.158415 7.919468 -20.913873 -17.058714 -26.306234 -43.299898 37.134573 -3.351883 -0.864247 -12.827252 -4.707197 -6.835710 -0.372625 7.675717 -8.974428 7.746009 23.295347 -33.451128 -48.483091 -0.843975 -4.817116 6.343969 1.764898 -54.088317 5.217456 -25.212667 71.040012 -21.752561 -1.077238 -6.528153 -1.736060 -0.140945 -0.141292 -0.089361 12.182301 -54.547397 -1.055598 28.982522 66.748819 29.996879 -20.603035 -16.504477 0.849231 0.200767 0.110576 0.107504
-247.492476 60.850643 -78.964111 157.718095 -14.571109 0.953609 4.096011 12.780953 0.888373 0.329422 1.047820 0.045260 0.571327 1.801596 0.063409 3.799768 11.472434 0.974383 -5.118289 16.764460 -0.565538 -5.329150 -7.989688 0.571142 6.787753 -3.172587 -8.083455 9.522325 -21.656924 -18.727091 -30.265106 -38.506336 39.484962 -4.475902 -0.970179 -15.386155 -5.521107 -7.241515 -0.686054 6.430525 -8.899229 8.104874 28.373190 -28.468858 -51.568115 0.148780 -5.444286 7.439671 1.683761 -54.042808 5.212645 -25.150435 71.020852 -21.726241 -1.064346 -6.516466 -1.738421 -0.147226 -0.129741 -0.088672 12.210835 -54.502461 -1.111058 28.908341 66.703993 29.922205 -20.543298 -16.454983 0.845551 0.146484 0.118857 0.091740
-247.493191 60.845817 -78.916391 157.670783 -14.577309 0.940831 4.163023 12.748640 0.946720 0.312827 1.073448 0.025349 0.564058 1.762047 0.093485 3.780433 11.486357 0.974856 -5.195490 16.682469 -0.311499 -5.482277 -8.064868 0.852504 7.366976 -3.137520 -7.971970 10.979545 -22.164356 -20.429179 -33.651084 -34.306736 41.314062 -5.730268 -1.332943 -18.163735 -6.288380 -7.667024 -0.934667 5.026510 -8.726864 8.533408 33.106609 -23.986381 -54.178775 1.170344 -6.144311 8.340334 1.649463 -54.045174 5.291047 -25.049831 70.964793 -21.648631 -1.070498 -6.472316 -1.747359 -0.139764 -0.107655 -0.083503 12.323815 -54.521168 -1.087211 28.746490 66.714416 29.796883 -20.436498 -16.458044 0.812854 0.092562 0.110182 0.080598
-247.511033 60.840359 -78.873911 157.712692 -14.576367 1.010492 4.138965 12.724746 0.897971 0.288360 1.060923 0.029689 0.598731 1.735944 0.123788 3.719167 11.544076 0.931470 -5.250535 16.564104 -0.020508 -5.651504 -8.172338 1.159172 7.950098 -3.172779 -7.835074 12.169746 -22.432443 -21.984086 -36.415497 -30.932953 42.665853 -7.063822 -1.924072 -20.861853 -6.957344 -8.073894 -1.091788 3.610430 -8.548106 8.995268 37.304943 -20.215013 -56.373609 2.080398 -6.782354 9.189621 1.718384 -54.050321 5.156222 -24.984208 70.912698 -21.587540 -1.072776 -6.437001 -1.752266 -0.132581 -0.091793 -0.073533 12.420327 -54.512825 -1.210557 28.730922 66.642395 29.763592 -20.374683 -16.411733 0.808413 -0.020640 0.109057 0.035989
-247.532814 60.835686 -78.835385 157.777410 -14.587612 1.102012 4.107094 12.726339 0.824971 0.268092 1.048551 0.031879 0.623523 1.755258 0.125176 3.755617 11.533599 0.977776 -5.394428 16.445875 0.234822 -5.845482 -8.309364 1.490290 8.444622 -3.236664 -7.753111 12.970445 -22.529932 -23.199557 -38.538750 -28.526815 43.639269 -8.327005 -2.708216 -23.218565 -7.582564 -8.407638 -1.227310 2.332185 -8.435839 9.483418 40.787078 -17.319059 -58.171413 2.798387 -7.303264 10.034353 1.807722 -54.045231 4.969769 -24.954626 70.880076 -21.559480 -1.075811 -6.427252 -1.755730 -0.123858 -0.064860 -0.066606 12.529427 -54.487450 -1.371882 28.721237 66.567563 29.731066 -20.235846 -16.356378 0.810477 -0.163156 0.098355 -0.028871
